<svg xmlns="http://www.w3.org/2000/svg" viewBox="0 0 100 100"><title>Fentriq</title><path d="M50 3 C18 3 3 18 3 50 C3 82 18 97 50 97 C82 97 97 82 97 50 C97 18 82 3 50 3 Z" fill="#4F5BF7"/><g transform="translate(3.65,-1.08) scale(0.9459)"><defs><mask id="sfentri"><rect x="0" y="0" width="100" height="100" fill="#fff"/><path d="M56 30 L42 54 L72 54 L58 78" fill="none" stroke="#000" stroke-width="2.0" stroke-linejoin="round" stroke-linecap="round"/></mask></defs><g mask="url(#sfentri)"><path d="M26 30 L56 30 L42 54 L12 54 Z" fill="#4F5BF7"/><path d="M56 30 L86 30 L72 54 L42 54 Z" fill="#AEB4C2"/><path d="M42 54 L72 54 L58 78 L28 78 Z" fill="#FFFFFF"/><path d="M58 78 L72 54 L86 54 L72 78 Z" fill="#8A6CFF"/></g></g></svg>