<svg xmlns="http://www.w3.org/2000/svg" viewBox="-14.00 -102.67 570.00 136.67"><title>Fentriq</title><g transform="translate(-26.51,-154.66) scale(2.2094)"><defs><mask id="sfentri"><rect x="0" y="0" width="100" height="100" fill="#fff"/><path d="M56 30 L42 54 L72 54 L58 78" fill="none" stroke="#000" stroke-width="2.0" stroke-linejoin="round" stroke-linecap="round"/></mask></defs><g mask="url(#sfentri)"><path d="M26 30 L56 30 L42 54 L12 54 Z" fill="#4F5BF7"/><path d="M56 30 L86 30 L72 54 L42 54 Z" fill="#3A3F4C"/><path d="M42 54 L72 54 L58 78 L28 78 Z" fill="#15171C"/><path d="M58 78 L72 54 L86 54 L72 78 Z" fill="#8A6CFF"/></g></g><g transform="translate(203.49,0)"><path d="M6.9499755859375005 0.0V-70.0H50.530004882812506V-59.08492431640625H18.960058593750002V-40.55753784179688H48.042510986328125V-29.642462158203127H18.960058593750002V0.0ZM82.97998046875 1.4000000000000001Q75.56248168945314 1.4000000000000001 69.92998046875 -1.75Q64.29747924804687 -4.9 61.15622863769531 -10.641250610351562Q58.01497802734375 -16.382501220703126 58.01497802734375 -24.112506103515628V-25.312506103515627Q58.01497802734375 -33.060009765625004 61.11497802734375 -38.792510986328125Q64.21497802734375 -44.52501220703125 69.78872985839843 -47.67501220703125Q75.36248168945312 -50.82501220703125 82.69248657226564 -50.82501220703125Q89.90499267578124 -50.82501220703125 95.27874450683593 -47.64500732421875Q100.65249633789062 -44.465002441406256 103.65249633789062 -38.78499755859376Q106.65249633789062 -33.104992675781254 106.65249633789062 -25.539990234375V-21.432476806640626H69.62506103515625Q69.84255981445312 -15.632525634765626 73.73128967285156 -12.126296997070312Q77.62001953125 -8.620068359375 83.3099853515625 -8.620068359375Q88.87246704101562 -8.620068359375 91.59120178222656 -11.06005859375Q94.3099365234375 -13.500048828125001 95.73242797851563 -16.597528076171876L105.17498779296875 -11.722491455078126Q103.75748901367189 -9.0 101.10748901367188 -5.932501220703125Q98.45748901367188 -2.8650024414062503 94.09248657226563 -0.7325012207031251Q89.72748413085938 1.4000000000000001 82.97998046875 1.4000000000000001ZM69.72506103515624 -30.097528076171876H95.02491455078126Q94.62491455078126 -35.02748413085938 91.28618469238282 -37.91621398925781Q87.94745483398438 -40.804943847656254 82.6099853515625 -40.804943847656254Q77.12501220703126 -40.804943847656254 73.8100341796875 -37.91621398925781Q70.49505615234375 -35.02748413085938 69.72506103515624 -30.097528076171876ZM118.11497802734377 0.0V-49.42501220703125H129.36005859375V-42.487542724609376H131.05506591796876Q132.36005859375 -45.31502685546875 135.800048828125 -47.78751831054687Q139.24003906250002 -50.260009765625 146.13252563476564 -50.260009765625Q151.84503173828125 -50.260009765625 156.2037811279297 -47.68875427246094Q160.56253051757812 -45.11749877929688 163.00627746582032 -40.50249633789063Q165.4500244140625 -35.88749389648438 165.4500244140625 -29.6V0.0H154.00494384765625V-28.704992675781252Q154.00494384765625 -34.72496337890625 151.0362091064453 -37.647454833984376Q148.06747436523438 -40.5699462890625 142.6874938964844 -40.5699462890625Q136.59001464843752 -40.5699462890625 133.07503662109377 -36.527459716796876Q129.56005859375 -32.48497314453125 129.56005859375 -25.042510986328125V0.0ZM197.96999511718752 0.0Q193.24498291015627 0.0 190.3874694824219 -2.866262817382813Q187.52995605468752 -5.732525634765626 187.52995605468752 -10.5700439453125V-39.899951171875H174.56999511718752V-49.42501220703125H187.52995605468752V-65.31497802734376H198.97503662109375V-49.42501220703125H213.1699951171875V-39.899951171875H198.97503662109375V-12.52506103515625Q198.97503662109375 -9.52506103515625 201.8100341796875 -9.52506103515625H211.72501220703126V0.0ZM224.51497802734377 0.0V-49.42501220703125H235.76005859375002V-43.737518310546875H237.45506591796877Q238.6075622558594 -46.790014648437506 241.19255981445315 -48.20751342773438Q243.7775573730469 -49.625012207031254 247.44003906250003 -49.625012207031254H253.3875427246094V-39.404943847656256H247.15254516601564Q242.2300537109375 -39.404943847656256 239.09505615234377 -36.75870056152344Q235.96005859375 -34.112457275390625 235.96005859375 -28.58497314453125V0.0ZM263.21497802734376 0.0V-49.42501220703125H274.66005859375V0.0ZM268.93751831054686 -55.67998046875Q265.7475036621094 -55.67998046875 263.54624328613284 -57.75748901367188Q261.34498291015626 -59.834997558593756 261.34498291015626 -63.190014648437504Q261.34498291015626 -66.56253051757812 263.54624328613284 -68.63128967285157Q265.7475036621094 -70.700048828125 268.93751831054686 -70.700048828125Q272.2275329589844 -70.700048828125 274.37879333496096 -68.63128967285157Q276.5300537109375 -66.56253051757812 276.5300537109375 -63.190014648437504Q276.5300537109375 -59.834997558593756 274.37879333496096 -57.75748901367188Q272.2275329589844 -55.67998046875 268.93751831054686 -55.67998046875ZM326.779931640625 20.0V-6.1899658203125005H325.0849243164063Q324.03242797851567 -4.367474365234375 322.05368347167973 -2.6037322998046877Q320.0749389648438 -0.8399902343750001 316.9111968994141 0.2800048828125Q313.7474548339844 1.4000000000000001 309.0899658203125 1.4000000000000001Q303.0024719238281 1.4000000000000001 297.8587249755859 -1.567498779296875Q292.71497802734376 -4.5349975585937505 289.6149780273438 -10.226248168945313Q286.5149780273438 -15.917498779296876 286.5149780273438 -23.947503662109376V-25.477508544921875Q286.5149780273438 -33.52501220703125 289.6237274169922 -39.207513427734376Q292.73247680664065 -44.8900146484375 297.908724975586 -47.857513427734375Q303.08497314453126 -50.82501220703125 309.0899658203125 -50.82501220703125Q316.09995117187503 -50.82501220703125 319.8074401855469 -48.41752319335937Q323.5149291992188 -46.0100341796875 325.28492431640626 -42.91754760742188H326.979931640625V-49.42501220703125H338.2250122070313V20.0ZM312.4699951171875 -8.620068359375Q318.78996582031255 -8.620068359375 322.8674499511719 -12.641299438476564Q326.9449340820313 -16.662530517578126 326.9449340820313 -24.2300048828125V-25.19500732421875Q326.9449340820313 -32.762481689453125 322.8261993408204 -36.78371276855469Q318.7074645996094 -40.804943847656254 312.4699951171875 -40.804943847656254Q306.2500244140625 -40.804943847656254 302.12254028320314 -36.78371276855469Q297.99505615234375 -32.762481689453125 297.99505615234375 -25.19500732421875V-24.2300048828125Q297.99505615234375 -16.662530517578126 302.12254028320314 -12.641299438476564Q306.2500244140625 -8.620068359375 312.4699951171875 -8.620068359375Z" fill="#15171C"/></g></svg>